HIERARCHY
ROOT joint_Root
{
	OFFSET 0.0 0.0 0.0
	CHANNELS 6 Xposition Yposition Zposition Zrotation Xrotation Yrotation 
	JOINT Hips
	{
		OFFSET -0.726466 93.3139 -2.00062
		CHANNELS 6 Xposition Yposition Zposition Zrotation Xrotation Yrotation 
		JOINT Spine
		{
			OFFSET 15.7357 0.0 0.0
			CHANNELS 6 Xposition Yposition Zposition Zrotation Xrotation Yrotation 
			JOINT Chest
			{
				OFFSET 8.98455 -0.406207 0.0
				CHANNELS 6 Xposition Yposition Zposition Zrotation Xrotation Yrotation 
				JOINT Neck
				{
					OFFSET 16.3773 0.0 0.0
					CHANNELS 6 Xposition Yposition Zposition Zrotation Xrotation Yrotation 
					JOINT Head
					{
						OFFSET 6.45672 0.0 0.0
						CHANNELS 6 Xposition Yposition Zposition Zrotation Xrotation Yrotation 
						End Site
						{
							OFFSET 0.0 0.0 0.0
						}
					}
				}
				JOINT Shoulder_L
				{
					OFFSET 12.9942 -0.242716 4.98039
					CHANNELS 6 Xposition Yposition Zposition Zrotation Xrotation Yrotation 
					JOINT UpperArm_L
					{
						OFFSET 5.34809 0.0 0.0
						CHANNELS 6 Xposition Yposition Zposition Zrotation Xrotation Yrotation 
						JOINT LowerArm_L
						{
							OFFSET 24.3286 1.87007e-05 0.0
							CHANNELS 6 Xposition Yposition Zposition Zrotation Xrotation Yrotation 
							JOINT Hand_L
							{
								OFFSET 22.2916 0.0 0.0
								CHANNELS 6 Xposition Yposition Zposition Zrotation Xrotation Yrotation 
								End Site
								{
									OFFSET 0.0 0.0 0.0
								}
							}
						}
					}
				}
				JOINT Shoulder_R
				{
					OFFSET 12.9945 -0.242716 -4.98039
					CHANNELS 6 Xposition Yposition Zposition Zrotation Xrotation Yrotation 
					JOINT UpperArm_R
					{
						OFFSET -5.34813 0.0 0.0
						CHANNELS 6 Xposition Yposition Zposition Zrotation Xrotation Yrotation 
						JOINT LowerArm_R
						{
							OFFSET -24.3289 0.000322201 0.0
							CHANNELS 6 Xposition Yposition Zposition Zrotation Xrotation Yrotation 
							JOINT Hand_R
							{
								OFFSET -22.2915 -0.000108084 0.0
								CHANNELS 6 Xposition Yposition Zposition Zrotation Xrotation Yrotation 
								End Site
								{
									OFFSET 0.0 0.0 0.0
								}
							}
						}
					}
				}
			}
		}
		JOINT UpperLeg_L
		{
			OFFSET -2.19248 -6.46944 0.0
			CHANNELS 6 Xposition Yposition Zposition Zrotation Xrotation Yrotation 
			JOINT LowerLeg_L
			{
				OFFSET 39.0811 0.0 -1.23785e-05
				CHANNELS 6 Xposition Yposition Zposition Zrotation Xrotation Yrotation 
				JOINT Foot_L
				{
					OFFSET 40.9854 0.0 -1.26872e-05
					CHANNELS 6 Xposition Yposition Zposition Zrotation Xrotation Yrotation 
					JOINT Toes_L
					{
						OFFSET 11.7543 0.0 0.0
						CHANNELS 6 Xposition Yposition Zposition Zrotation Xrotation Yrotation 
						End Site
						{
							OFFSET 0.0 0.0 0.0
						}
					}
				}
			}
		}
		JOINT UpperLeg_R
		{
			OFFSET -2.19251 6.46944 0.0
			CHANNELS 6 Xposition Yposition Zposition Zrotation Xrotation Yrotation 
			JOINT LowerLeg_R
			{
				OFFSET -39.0811 -0.00228153 -0.0401928
				CHANNELS 6 Xposition Yposition Zposition Zrotation Xrotation Yrotation 
				JOINT Foot_R
				{
					OFFSET -40.9854 0.0 0.0
					CHANNELS 6 Xposition Yposition Zposition Zrotation Xrotation Yrotation 
					JOINT Toes_R
					{
						OFFSET -11.7543 0.0 0.0
						CHANNELS 6 Xposition Yposition Zposition Zrotation Xrotation Yrotation 
						End Site
						{
							OFFSET 0.0 0.0 0.0
						}
					}
				}
			}
		}
	}
}
MOTION
Frames:	8
Frame Time:	0.0333333
0.000000 0.000000 0.000000 0.000000 0.000000 -0.000000 -1.287640 92.851200 -0.709381 88.812900 -4.688080 2.510760 15.735700 0.000005 -0.000001 94.635800 86.295900 -94.489800 8.984550 -0.406207 -0.000000 -0.382773 0.588226 0.293674 16.377300 -0.000001 -0.000001 3.186120 -1.921060 3.705370 6.456720 -0.000001 -0.000000 7.386100 -0.529951 -4.111290 12.994200 -0.242716 4.980390 -90.561600 1.736310 -72.072400 5.348090 -0.000007 -0.000001 -68.824200 39.827900 -10.396200 24.328600 0.000019 0.000005 3.095660 7.794980 -21.739500 22.291600 -0.000001 0.000005 3.718430 5.491290 -6.186470 12.994500 -0.242716 -4.980390 87.507800 8.237660 -73.102700 -5.348130 -0.000001 -0.000004 -66.112600 34.246700 -11.730400 -24.328900 0.000322 -0.000009 5.563450 14.513400 -21.242500 -22.291500 -0.000108 -0.000004 7.475160 5.307620 -0.142474 -2.192480 -6.469440 -0.000000 -175.532000 -8.699890 -1.287200 39.081100 -0.000007 -0.000012 -0.080807 0.256781 17.468300 40.985400 -0.000006 -0.000013 -1.601440 1.730020 -63.539000 11.754300 -0.000000 0.000003 -0.000000 -0.000007 -16.577800 -2.192510 6.469440 -0.000001 179.395000 9.296880 -178.976000 -39.081100 -0.002282 -0.040193 -0.044760 0.187130 14.412600 -40.985400 0.000008 0.000006 1.728740 7.850770 -63.290300 -11.754300 -0.000006 -0.000006 -0.003678 -0.048044 -18.527300
0.000000 0.000000 0.000000 0.000000 0.000000 -0.000000 -1.257640 92.862300 -0.712702 88.815100 -4.744140 2.440300 15.735700 0.000005 -0.000001 94.253500 86.325200 -94.132700 8.984550 -0.406207 -0.000000 -0.437127 0.536351 0.243386 16.377300 -0.000001 -0.000001 3.308610 -1.850990 3.633200 6.456720 -0.000001 -0.000000 7.304620 -0.354347 -4.013610 12.994200 -0.242716 4.980390 -90.530600 1.633680 -72.003100 5.348090 -0.000007 -0.000001 -68.819300 39.789200 -10.420700 24.328600 0.000019 0.000005 3.132780 7.852490 -21.830900 22.291600 -0.000001 0.000005 3.692510 5.490630 -6.160430 12.994500 -0.242716 -4.980390 87.417800 8.395800 -72.835700 -5.348130 -0.000001 -0.000004 -65.635000 32.273700 -11.771700 -24.328900 0.000322 -0.000009 6.532320 14.719100 -24.264600 -22.291500 -0.000108 -0.000004 6.668240 5.288400 0.396907 -2.192480 -6.469440 -0.000000 -175.556000 -8.802720 -1.308400 39.081100 -0.000007 -0.000012 -0.080613 0.257635 17.374600 40.985400 -0.000006 -0.000013 -1.577030 1.767310 -63.492200 11.754300 -0.000000 0.000003 -0.000000 -0.000004 -16.577600 -2.192510 6.469440 -0.000001 179.377000 9.361360 -179.025000 -39.081100 -0.002282 -0.040193 -0.043913 0.184727 14.346100 -40.985400 0.000008 0.000006 1.813800 7.965970 -63.259000 -11.754300 -0.000006 -0.000006 -0.003683 -0.048105 -18.529700
0.000000 0.000000 0.000000 0.000000 0.000000 -0.000000 -1.228630 92.876300 -0.731780 88.779100 -4.868170 2.392000 15.735700 0.000005 -0.000001 93.527000 86.369400 -93.421100 8.984550 -0.406207 -0.000000 -0.519019 0.438953 0.213680 16.377300 -0.000001 -0.000001 3.445550 -1.734230 3.563720 6.456720 -0.000001 -0.000000 7.410130 -0.070685 -4.015580 12.994200 -0.242716 4.980390 -90.489100 1.500650 -71.946100 5.348090 -0.000007 -0.000001 -68.931900 39.682400 -10.324700 24.328600 0.000019 0.000005 3.092310 7.735670 -21.867900 22.291600 -0.000001 0.000005 3.677070 5.490120 -6.140410 12.994500 -0.242716 -4.980390 87.332100 8.511680 -72.524700 -5.348130 -0.000001 -0.000004 -64.845700 29.634200 -12.132400 -24.328900 0.000322 -0.000009 7.051120 13.105600 -28.619900 -22.291500 -0.000108 -0.000004 6.237460 5.280660 0.608407 -2.192480 -6.469440 -0.000000 -175.556000 -8.891580 -1.310420 39.081100 -0.000007 -0.000012 -0.078414 0.251778 17.298700 40.985400 -0.000006 -0.000013 -1.561830 1.696690 -63.456100 11.754300 -0.000000 0.000003 -0.000000 -0.000003 -16.577600 -2.192510 6.469440 -0.000001 179.405000 9.369800 -179.039000 -39.081100 -0.002282 -0.040193 -0.041013 0.174824 14.232900 -40.985400 0.000008 0.000006 1.949070 8.113960 -63.201200 -11.754300 -0.000006 -0.000006 -0.003600 -0.047216 -18.493500
0.000000 0.000000 0.000000 0.000000 0.000000 -0.000000 -1.180500 92.875800 -0.772345 88.737200 -5.166490 2.318590 15.735700 0.000005 -0.000001 92.891800 86.429000 -92.793300 8.984550 -0.406207 -0.000000 -0.633452 0.353009 0.198877 16.377300 -0.000001 -0.000001 3.681010 -1.591020 3.570360 6.456720 -0.000001 -0.000000 7.479950 0.297815 -4.115830 12.994200 -0.242716 4.980390 -90.456200 1.396970 -71.914000 5.348090 -0.000007 -0.000001 -69.123200 39.422700 -10.109700 24.328600 0.000019 0.000005 3.129500 7.816890 -21.899600 22.291600 -0.000001 0.000005 3.625630 5.489740 -6.125650 12.994500 -0.242716 -4.980390 87.302800 8.419870 -72.165200 -5.348130 -0.000001 -0.000004 -63.604600 27.172100 -13.399400 -24.328900 0.000322 -0.000009 7.623110 11.458800 -33.972400 -22.291500 -0.000108 -0.000004 6.893100 5.288100 0.403071 -2.192480 -6.469440 -0.000000 -175.544000 -9.109100 -1.409760 39.081100 -0.000007 -0.000012 -0.079370 0.253701 17.372200 40.985400 -0.000006 -0.000013 -1.546770 1.625000 -63.485600 11.754300 -0.000000 0.000003 -0.000000 -0.000003 -16.577600 -2.192510 6.469440 -0.000001 179.419000 9.254890 -179.176000 -39.081100 -0.002282 -0.040193 -0.042195 0.179242 14.251300 -40.985400 0.000008 0.000006 1.891000 8.279450 -63.145600 -11.754300 -0.000006 -0.000006 -0.003600 -0.047215 -18.493500
0.000000 0.000000 0.000000 0.000000 0.000000 -0.000000 -1.121080 92.891100 -0.833533 88.670000 -5.649340 2.308630 15.735700 0.000005 -0.000001 92.479200 86.466200 -92.405400 8.984550 -0.406207 -0.000000 -0.705211 0.300195 0.149396 16.377300 -0.000001 -0.000001 3.885300 -1.433350 3.642980 6.456720 -0.000001 -0.000000 7.699210 0.618071 -4.085820 12.994200 -0.242716 4.980390 -90.433400 1.329940 -71.949700 5.348090 -0.000007 -0.000001 -69.206900 39.176400 -9.891200 24.328600 0.000019 0.000005 3.119190 7.794780 -21.889900 22.291600 -0.000001 0.000005 3.610080 5.488560 -6.079210 12.994500 -0.242716 -4.980390 87.304600 8.303390 -71.944200 -5.348130 -0.000001 -0.000004 -62.137700 24.408500 -15.488000 -24.328900 0.000322 -0.000009 9.314670 11.151600 -40.299600 -22.291500 -0.000108 -0.000004 8.051940 5.287140 0.429755 -2.192480 -6.469440 -0.000000 -175.520000 -9.356880 -1.366460 39.081100 -0.000007 -0.000012 -0.079056 0.253440 17.324400 40.985400 -0.000006 -0.000013 -1.544510 1.390690 -63.464400 11.754300 -0.000000 0.000003 -0.000000 -0.000005 -16.577700 -2.192510 6.469440 -0.000001 179.468000 9.015720 -179.226000 -39.081100 -0.002282 -0.040193 -0.038555 0.165876 14.172100 -40.985400 0.000008 0.000006 2.032110 8.516230 -63.048200 -11.754300 -0.000006 -0.000006 -0.003786 -0.049193 -18.574000
0.000000 0.000000 0.000000 0.000000 0.000000 -0.000000 -1.037180 92.889000 -0.882033 88.606100 -6.286280 2.385370 15.735700 0.000005 -0.000001 92.597000 86.489000 -92.564000 8.984550 -0.406207 -0.000000 -0.751337 0.315649 0.067958 16.377300 -0.000001 -0.000001 4.093350 -1.319550 3.799450 6.456720 -0.000001 -0.000000 8.097140 0.779151 -3.966330 12.994200 -0.242716 4.980390 -90.406200 1.246400 -71.947200 5.348090 -0.000007 -0.000001 -69.211900 39.023900 -9.823930 24.328600 0.000019 0.000005 3.181150 8.028310 -21.699800 22.291600 -0.000001 0.000005 3.598310 5.489500 -6.116310 12.994500 -0.242716 -4.980390 87.345200 8.141990 -71.871500 -5.348130 -0.000001 -0.000004 -60.609800 21.418100 -18.211400 -24.328900 0.000322 -0.000009 11.641600 10.971000 -47.268100 -22.291500 -0.000108 -0.000004 9.941590 5.279700 0.632304 -2.192480 -6.469440 -0.000000 -175.493000 -9.734280 -1.263590 39.081100 -0.000007 -0.000012 -0.079570 0.253731 17.411300 40.985400 -0.000006 -0.000013 -1.532300 1.124520 -63.540500 11.754300 -0.000000 0.000003 -0.000000 -0.000006 -16.577700 -2.192510 6.469440 -0.000001 179.447000 8.752100 -179.252000 -39.081100 -0.002282 -0.040193 -0.039369 0.168713 14.203200 -40.985400 0.000008 0.000006 1.911140 8.898370 -62.952300 -11.754300 -0.000006 -0.000006 -0.003725 -0.048548 -18.547800
0.000000 0.000000 0.000000 0.000000 0.000000 -0.000000 -0.953358 92.895900 -0.922875 88.522600 -7.027530 2.504190 15.735700 0.000005 -0.000001 93.238700 86.508300 -93.247700 8.984550 -0.406207 -0.000000 -0.793697 0.395121 -0.015121 16.377300 -0.000001 -0.000001 4.321340 -1.258360 4.013790 6.456720 -0.000001 -0.000000 8.550040 0.719427 -3.871530 12.994200 -0.242716 4.980390 -90.373100 1.143350 -71.926600 5.348090 -0.000007 -0.000001 -69.188500 38.895500 -9.822870 24.328600 0.000019 0.000005 3.165400 8.058770 -21.528400 22.291600 -0.000001 0.000005 3.647940 5.489990 -6.135680 12.994500 -0.242716 -4.980390 87.427400 7.906840 -71.911900 -5.348130 -0.000001 -0.000004 -59.307800 18.024100 -21.293900 -24.328900 0.000322 -0.000009 14.165200 10.151200 -55.069900 -22.291500 -0.000108 -0.000004 11.478400 5.273550 0.802030 -2.192480 -6.469440 -0.000000 -175.439000 -10.163500 -1.054100 39.081100 -0.000007 -0.000012 -0.079169 0.252345 17.418200 40.985400 -0.000006 -0.000013 -1.527940 0.808139 -63.591800 11.754300 -0.000000 0.000003 -0.000000 -0.000000 -16.577500 -2.192510 6.469440 -0.000001 179.454000 8.434400 -179.201000 -39.081100 -0.002282 -0.040193 -0.037647 0.162174 14.180900 -40.985400 0.000008 0.000006 2.019700 9.311690 -62.877100 -11.754300 -0.000006 -0.000006 -0.003701 -0.048298 -18.537600
0.000000 0.000000 0.000000 0.000000 0.000000 -0.000000 -0.861369 92.888600 -0.979328 88.440000 -7.693050 2.506300 15.735700 0.000005 -0.000001 93.874600 86.563600 -93.921100 8.984550 -0.406207 -0.000000 -0.908657 0.467853 -0.089198 16.377300 -0.000001 -0.000001 4.451580 -1.247240 4.197680 6.456720 -0.000001 -0.000000 9.076610 0.625061 -3.721190 12.994200 -0.242716 4.980390 -90.335600 1.025600 -71.878700 5.348090 -0.000007 -0.000001 -69.174100 38.700400 -9.848730 24.328600 0.000019 0.000005 3.154580 8.064680 -21.447100 22.291600 -0.000001 0.000005 3.749070 5.492170 -6.221170 12.994500 -0.242716 -4.980390 87.524300 7.630240 -71.963700 -5.348130 -0.000001 -0.000004 -58.308000 14.316100 -24.756500 -24.328900 0.000322 -0.000009 16.587700 8.615730 -63.300300 -22.291500 -0.000108 -0.000004 13.202900 5.269450 0.913144 -2.192480 -6.469440 -0.000000 -175.405000 -10.546300 -1.076260 39.081100 -0.000007 -0.000012 -0.079979 0.252354 17.585100 40.985400 -0.000006 -0.000013 -1.509900 0.566625 -63.694400 11.754300 -0.000000 0.000003 -0.000000 -0.000004 -16.577600 -2.192510 6.469440 -0.000001 179.445000 8.117700 -179.309000 -39.081100 -0.002282 -0.040193 -0.040227 0.172146 14.199700 -40.985400 0.000008 0.000006 1.731150 9.709580 -62.728300 -11.754300 -0.000006 -0.000006 -0.003618 -0.047410 -18.501400
